<?xml version="1.0" ?>
<!-- Uploaded to: SVG Repo, www.svgrepo.com, Generator: SVG Repo Mixer Tools -->
<svg width="800px" height="800px" viewBox="0 0 64 64" enable-background="new 0 0 64 64" id="Filled_Outline_00000067219907487444458210000009573402626722376610_" version="1.1" xml:space="preserve" xmlns="http://www.w3.org/2000/svg" xmlns:xlink="http://www.w3.org/1999/xlink">
<g>
<g>
<path d="M41,17h-0.1c-2.705-1.27-5.714-2-8.9-2s-6.195,0.73-8.9,2H23C10.85,17,1,26.85,1,39v0    c0,12.15,9.85,22,22,22h0.1c2.705,1.27,5.714,2,8.9,2s6.195-0.73,8.9-2H41c12.15,0,22-9.85,22-22v0C63,26.85,53.15,17,41,17z" fill="#FF6D1F"/>
<path d="M21,4L21,4c0,1.657,1.343,3,3,3h0c2.761,0,5,2.239,5,5v3h6v-3c0-6.075-4.925-11-11-11h0    C22.343,1,21,2.343,21,4z" fill="#A69D24"/>
<path d="M45,53h-4v-4h-6v4h-6l0-4h-6v4h-4v-4c0-4.418,3.582-8,8-8h10c4.418,0,8,3.582,8,8V53z M17,29    c0,3.314,2.686,6,6,6c3.314,0,6-2.686,6-6L17,29z M35,29c0,3.314,2.686,6,6,6c3.314,0,6-2.686,6-6L35,29z" fill="#732002"/>
</g>
<g>
<path d="M37,40H27c-4.963,0-9,4.037-9,9v4c0,0.553,0.447,1,1,1h4c0.553,0,1-0.447,1-1v-3h4v3c0,0.553,0.447,1,1,1    h6c0.553,0,1-0.447,1-1v-3h4v3c0,0.553,0.447,1,1,1h4c0.553,0,1-0.447,1-1v-4C46,44.037,41.963,40,37,40z M44,52h-2v-3    c0-0.553-0.447-1-1-1h-6c-0.553,0-1,0.447-1,1v3h-4v-3c0-0.553-0.447-1-1-1h-6c-0.553,0-1,0.447-1,1v3h-2v-3c0-3.859,3.141-7,7-7    h10c3.859,0,7,3.141,7,7V52z" fill="#260A04"/>
<path d="M23,36c3.859,0,7-3.141,7-7c0-0.553-0.447-1-1-1H17c-0.553,0-1,0.447-1,1C16,32.859,19.141,36,23,36z     M27.899,30c-0.465,2.279-2.484,4-4.899,4s-4.435-1.721-4.899-4H27.899z" fill="#260A04"/>
<path d="M47,28H35c-0.553,0-1,0.447-1,1c0,3.859,3.141,7,7,7s7-3.141,7-7C48,28.447,47.553,28,47,28z M41,34    c-2.415,0-4.435-1.721-4.899-4h9.799C45.435,32.279,43.415,34,41,34z" fill="#260A04"/>
<path d="M64,39c0-12.63-10.233-22.911-22.843-22.996c-1.623-0.746-3.351-1.3-5.157-1.633V12    c0-6.617-5.383-12-12-12c-2.206,0-4,1.794-4,4s1.794,4,4,4s4,1.794,4,4v2.371c-1.805,0.333-3.534,0.887-5.157,1.633    C10.233,16.089,0,26.37,0,39s10.233,22.911,22.843,22.996C25.633,63.279,28.733,64,32,64s6.367-0.721,9.157-2.004    C53.767,61.911,64,51.63,64,39z M24,6c-1.103,0-2-0.897-2-2s0.897-2,2-2c5.514,0,10,4.486,10,10v2.095    C33.341,14.035,32.675,14,32,14s-1.341,0.035-2,0.095V12C30,8.691,27.309,6,24,6z M45.218,59.574C50.547,55.555,54,49.174,54,42    h-2c0,11.028-8.972,20-20,20s-20-8.972-20-20h-2c0,7.174,3.453,13.555,8.782,17.574C9.218,57.616,2,49.135,2,39    s7.218-18.616,16.782-20.574C13.453,22.445,10,28.826,10,36h2c0-11.028,8.972-20,20-20s20,8.972,20,20h2    c0-7.174-3.453-13.555-8.782-17.574C54.782,20.384,62,28.865,62,39S54.782,57.616,45.218,59.574z" fill="#260A04"/>
</g>
</g>
</svg>