<?xml version="1.0" encoding="iso-8859-1"?>
<!-- Uploaded to: SVG Repo, www.svgrepo.com, Generator: SVG Repo Mixer Tools -->
<svg height="800px" width="800px" version="1.1" id="Layer_1" xmlns="http://www.w3.org/2000/svg" xmlns:xlink="http://www.w3.org/1999/xlink" 
	 viewBox="0 0 512 512" xml:space="preserve">
<path style="fill:#DBD2CA;" d="M323.642,230.469c0,0,60.534,4.589,97.034,52.485l-49.309,39.212
	C371.369,322.166,314.789,254.032,323.642,230.469z"/>
<path style="fill:#F7EDE3;" d="M151.205,336.234h-24.683c-18.36,0-33.244-14.884-33.244-33.244V180.054h57.927V336.234z"/>
<path style="fill:#EDE3DB;" d="M151.205,318.876h-22.194c-9.425,0-17.065-7.64-17.065-17.065V180.054H93.278V302.99
	c0,18.361,14.885,33.244,33.244,33.244h24.683V318.876z"/>
<path style="fill:#F7EDE3;" d="M377.67,379.713c0,85.81-57.392,131.909-128.188,131.909s-128.188-46.099-128.188-131.909
	s41.691-178.838,128.188-178.838S377.67,293.902,377.67,379.713z"/>
<path id="SVGCleanerId_0" style="fill:#DBD2CA;" d="M268.883,505.155c-70.796,0-128.188-46.099-128.188-131.909
	c0-69.704,27.51-144.17,84.199-169.668c-69.819,15.835-103.601,98.902-103.601,176.135c0,85.81,57.392,131.909,128.188,131.909
	c19.903,0,38.747-3.644,55.553-10.789C293.568,503.697,281.439,505.155,268.883,505.155z"/>
<g>
	<path id="SVGCleanerId_0_1_" style="fill:#DBD2CA;" d="M268.883,505.155c-70.796,0-128.188-46.099-128.188-131.909
		c0-69.704,27.51-144.17,84.199-169.668c-69.819,15.835-103.601,98.902-103.601,176.135c0,85.81,57.392,131.909,128.188,131.909
		c19.903,0,38.747-3.644,55.553-10.789C293.568,503.697,281.439,505.155,268.883,505.155z"/>
</g>
<path style="fill:#F75534;" d="M349.495,263.987c-29.222,10.455-63.434,15.812-100.018,15.812c-31,0-60.319-3.848-86.328-11.394
	c-4.678-1.358-9.238-2.824-13.689-4.42c1.983-3.482,4.074-6.866,6.263-10.143c0.894-1.326,1.8-2.64,2.738-3.934
	c1.283-1.811,2.62-3.589,3.988-5.314c0.937-1.189,1.896-2.353,2.866-3.505c0.121-0.144,0.242-0.287,0.364-0.43
	c20.588-24.24,48.45-39.783,83.799-39.783C295.18,200.876,328.368,226.843,349.495,263.987z"/>
<path style="fill:#FFE666;" d="M211.03,494.06l-14.913-14.874c-23.958-23.897-23.958-63.002,0-86.899l76.498-76.301
	c23.981-23.92,63.225-23.92,87.206,0l14.913,14.874c23.958,23.897,23.958,63.002,0,86.899l-76.498,76.301
	C274.254,517.98,235.012,517.98,211.03,494.06z"/>
<path style="fill:#EDBF31;" d="M224.333,481.621l-15.367-15.329c-20.914-20.861-24.328-52.741-10.109-76.74l-2.741,2.733
	c-23.958,23.897-23.958,63.002,0,86.899l14.913,14.874c23.981,23.92,63.225,23.92,87.206,0l1.375-1.372
	C275.742,505.729,244.77,502.006,224.333,481.621z"/>
<path style="fill:#F7EDE3;" d="M131.323,227.092h-28.909c-11.616,0-21.033-9.417-21.033-21.033v-47.827
	c0-11.616,9.417-21.033,21.033-21.033h28.909c11.616,0,21.033,9.417,21.033,21.033v47.827
	C152.355,217.676,142.939,227.092,131.323,227.092z"/>
<path style="fill:#DBD2CA;" d="M98.898,206.06v-47.827c0-11.616,9.417-21.033,21.033-21.033h-17.518
	c-11.616,0-21.033,9.417-21.033,21.033v47.827c0,11.616,9.417,21.033,21.033,21.033h17.518
	C108.315,227.092,98.898,217.676,98.898,206.06z"/>
<path style="fill:#F7EDE3;" d="M360.711,350.267l-20.404-20.351c-8.221-8.2-8.221-21.491,0-29.692l33.945-33.857
	c8.228-8.206,21.57-8.206,29.797,0l20.404,20.351c8.221,8.2,8.221,21.491,0,29.692l-33.945,33.857
	C382.281,358.474,368.939,358.474,360.711,350.267z"/>
<path style="fill:#FFE666;" d="M292.906,278.787c0,12.622-5.4,23.994-14.024,31.916c-7.728,7.114-18.055,11.458-29.404,11.458
	c-23.972,0-43.418-19.424-43.418-43.375c0-17.181,10.003-32.036,24.501-39.052c5.712-2.78,12.137-4.333,18.917-4.333
	C273.461,235.402,292.906,254.824,292.906,278.787z"/>
<path style="fill:#EDBF31;" d="M228.124,273.854c0-16.687,9.448-31.155,23.272-38.404c-0.636-0.028-1.276-0.048-1.919-0.048
	c-6.78,0-13.204,1.552-18.917,4.333c-14.498,7.018-24.501,21.871-24.501,39.052c0,23.951,19.446,43.375,43.418,43.375
	c7.3,0,14.171-1.805,20.205-4.98C246.574,316.207,228.124,297.181,228.124,273.854z"/>
<path style="fill:#BD391E;" d="M224.891,203.581c-27.281,12.266-47.794,35.872-61.742,64.824c-4.678-1.358-9.238-2.824-13.689-4.42
	c1.983-3.482,4.074-6.866,6.263-10.143c0.906-1.326,1.811-2.64,2.738-3.934c1.294-1.811,2.63-3.579,3.988-5.314
	C178.487,224.278,199.259,209.403,224.891,203.581z"/>
<path style="fill:#F75534;" d="M166.429,1.005c10.286,7.921,32.977,27.391,47.361,54.687c1.134,2.151,0.492,4.814-1.506,6.203
	l-47.21,32.829c-2.764,1.922-6.588,0.484-7.41-2.779C154,77.39,147.212,40.936,158.92,3.33
	C159.909,0.154,163.794-1.024,166.429,1.005z"/>
<path style="fill:#BD391E;" d="M170.551,72.049c-2.087-10.862-4.041-28.969,0.443-48.065c7.172,6.169,17.766,16.603,25.569,29.978
	L170.551,72.049z"/>
<path style="fill:#F75534;" d="M332.534,1.005c-10.286,7.921-32.977,27.391-47.361,54.687c-1.134,2.151-0.492,4.814,1.506,6.203
	l47.21,32.829c2.764,1.922,6.588,0.484,7.41-2.779c3.664-14.553,10.452-51.008-1.255-88.614
	C339.054,0.154,335.169-1.024,332.534,1.005z"/>
<path style="fill:#BD391E;" d="M328.541,72.049c2.087-10.862,4.041-28.969-0.443-48.065c-7.172,6.169-17.766,16.603-25.569,29.978
	L328.541,72.049z"/>
<path style="fill:#F7EDE3;" d="M274.701,235.396h-50.449c-40.178,0-73.053-32.874-73.053-73.053v-38.959
	c0-46.41,37.972-84.382,84.382-84.382h27.791c46.41,0,84.382,37.972,84.382,84.382v38.959
	C347.753,202.523,314.88,235.396,274.701,235.396z"/>
<path style="fill:#DBD2CA;" d="M170.601,162.344v-38.959c0-46.41,37.972-84.382,84.382-84.382h-19.402
	c-46.41,0-84.382,37.972-84.382,84.382v38.959c0,40.178,32.874,73.052,73.053,73.052h19.402
	C203.476,235.396,170.601,202.523,170.601,162.344z"/>
<path style="fill:#F7EDE3;" d="M416.366,512h-93.348c-2.381,0-4.311-1.93-4.311-4.311v-28.817c0-16.313,13.224-29.537,29.537-29.537
	h42.896c16.313,0,29.537,13.224,29.537,29.537v28.817C420.678,510.07,418.747,512,416.366,512z"/>
<path style="fill:#DBD2CA;" d="M338.109,507.688v-28.817c0-16.313,13.224-29.537,29.537-29.537h-19.402
	c-16.313,0-29.537,13.224-29.537,29.537v28.817c0,2.381,1.93,4.311,4.311,4.311h19.402C340.039,512,338.109,510.069,338.109,507.688
	z"/>
<path style="fill:#F7EDE3;" d="M179.04,512H85.693c-2.381,0-4.311-1.93-4.311-4.311v-28.817c0-16.313,13.224-29.537,29.537-29.537
	h42.896c16.313,0,29.537,13.224,29.537,29.537v28.817C183.352,510.07,181.421,512,179.04,512z"/>
<path style="fill:#DBD2CA;" d="M100.783,507.688v-28.817c0-16.313,13.224-29.537,29.537-29.537h-19.402
	c-16.313,0-29.537,13.224-29.537,29.537v28.817c0,2.381,1.93,4.311,4.311,4.311h19.402C102.713,512,100.783,510.069,100.783,507.688
	z"/>
<path style="fill:#C2BAB2;" d="M262.638,206.492c-6.699,0-10.943-2.769-13.679-6.351c-2.735,3.582-6.981,6.351-13.679,6.351
	c-12,0-21.763-9.747-21.763-21.728v-3.55c0-4.465,3.62-8.084,8.084-8.084s8.084,3.62,8.084,8.084v3.55c0,3.066,2.51,5.56,5.594,5.56
	c0.723,0,0.982-0.123,0.984-0.124c0.856-0.723,1.532-4.762,1.821-6.488c0.65-3.878,2.17-12.958,10.872-12.958
	c8.702,0,10.223,9.08,10.872,12.958c0.289,1.725,0.965,5.763,1.841,6.5c0-0.001,0-0.001,0-0.001c0.008,0,0.277,0.112,0.965,0.112
	c3.085,0,5.593-2.494,5.593-5.56v-3.55c0-4.465,3.618-8.084,8.084-8.084c4.465,0,8.084,3.62,8.084,8.084v3.55
	C284.4,196.746,274.638,206.492,262.638,206.492z"/>
<g>
	<path style="fill:#ABA39C;" d="M181.899,136.701c-2.122,0-4.242-0.831-5.828-2.482c-3.094-3.219-2.994-8.336,0.226-11.43
		c19.89-19.122,46.251-11.932,57.412-5.46c3.862,2.24,5.177,7.187,2.937,11.049c-2.234,3.854-7.164,5.171-11.021,2.954
		c-0.945-0.536-22.134-12.257-38.123,3.113C185.933,135.951,183.914,136.701,181.899,136.701z"/>
	<path style="fill:#ABA39C;" d="M316.019,136.701c-2.016,0-4.033-0.749-5.601-2.256c-16.18-15.551-37.876-3.256-38.095-3.128
		c-3.862,2.24-8.809,0.926-11.05-2.937c-2.24-3.862-0.925-8.808,2.938-11.049c11.158-6.473,37.521-13.661,57.411,5.46
		c3.219,3.094,3.32,8.212,0.227,11.43C320.261,135.869,318.141,136.701,316.019,136.701z"/>
	<path style="fill:#ABA39C;" d="M201.912,168.72c-0.313,0-0.629-0.018-0.948-0.055l-32.545-3.802
		c-4.435-0.518-7.61-4.533-7.092-8.967c0.518-4.435,4.532-7.61,8.967-7.092l32.545,3.802c4.435,0.518,7.61,4.533,7.092,8.967
		C209.451,165.689,205.957,168.72,201.912,168.72z"/>
	<path style="fill:#ABA39C;" d="M173.302,194.561c-3.976,0-7.442-2.934-7.999-6.984c-0.608-4.423,2.485-8.501,6.908-9.11
		l28.589-3.931c4.42-0.609,8.501,2.484,9.11,6.908c0.608,4.423-2.485,8.501-6.908,9.11l-28.589,3.931
		C174.04,194.536,173.669,194.561,173.302,194.561z"/>
	<path style="fill:#ABA39C;" d="M296.016,168.72c-4.045,0-7.538-3.03-8.019-7.147c-0.518-4.435,2.657-8.449,7.092-8.967
		l32.547-3.802c4.434-0.517,8.449,2.656,8.967,7.092c0.518,4.435-2.657,8.449-7.092,8.967l-32.547,3.802
		C296.645,168.703,296.33,168.72,296.016,168.72z"/>
	<path style="fill:#ABA39C;" d="M324.627,194.561c-0.368,0-0.738-0.025-1.112-0.076l-28.589-3.931
		c-4.423-0.608-7.516-4.686-6.908-9.11c0.607-4.424,4.693-7.512,9.109-6.908l28.589,3.931c4.423,0.608,7.516,4.686,6.908,9.11
		C332.068,191.626,328.603,194.561,324.627,194.561z"/>
	<circle style="fill:#ABA39C;" cx="248.957" cy="159.597" r="8.084"/>
</g>
<g>
	<path style="fill:#CCA325;" d="M279.782,487.815c-2.066,0-4.13-0.787-5.709-2.36l-69.773-69.594
		c-3.161-3.154-3.168-8.271-0.015-11.432c3.152-3.162,8.271-3.168,11.432-0.015l69.774,69.594c3.161,3.154,3.167,8.271,0.015,11.432
		C283.926,487.022,281.854,487.815,279.782,487.815z"/>
	<path style="fill:#CCA325;" d="M305.093,462.569c-2.066,0-4.13-0.787-5.709-2.36l-69.774-69.594
		c-3.161-3.154-3.168-8.271-0.015-11.432c3.152-3.162,8.271-3.168,11.432-0.015l69.775,69.594c3.161,3.154,3.167,8.271,0.015,11.432
		C309.238,461.777,307.165,462.569,305.093,462.569z"/>
	<path style="fill:#CCA325;" d="M330.405,437.322c-2.066,0-4.13-0.787-5.709-2.36l-69.774-69.594
		c-3.161-3.154-3.168-8.271-0.015-11.432c3.151-3.161,8.269-3.169,11.433-0.015l69.775,69.594c3.161,3.154,3.167,8.271,0.015,11.432
		C334.55,436.53,332.477,437.322,330.405,437.322z"/>
	<path style="fill:#CCA325;" d="M355.716,412.076c-2.066,0-4.13-0.787-5.709-2.36l-69.774-69.594
		c-3.161-3.154-3.167-8.271-0.015-11.432c3.152-3.162,8.27-3.169,11.433-0.015l69.774,69.594c3.161,3.154,3.167,8.271,0.015,11.432
		C359.861,411.284,357.788,412.076,355.716,412.076z"/>
</g>
<g>
	<path style="fill:#C2BAB2;" d="M124.432,195.487v31.604h-16.169v-31.604c0-4.463,3.622-8.084,8.084-8.084
		C120.81,187.402,124.432,191.024,124.432,195.487z"/>
	<path style="fill:#C2BAB2;" d="M378.115,323.476l-22.398,22.334l-11.436-11.426l0.01-0.01l22.398-22.345
		c3.169-3.158,8.289-3.147,11.436,0.01C381.283,315.209,381.273,320.317,378.115,323.476z"/>
</g>
<path style="fill:#CCA325;" d="M257.046,281.665v39.742c-2.62,0.496-5.325,0.754-8.084,0.754s-5.465-0.259-8.084-0.754v-39.742
	c0-4.463,3.622-8.084,8.084-8.084C253.435,273.58,257.046,277.202,257.046,281.665z"/>
<g>
	<path style="fill:#C2BAB2;" d="M122.556,488.2V512h-16.169v-23.8c0-4.473,3.611-8.084,8.084-8.084
		C118.934,480.116,122.556,483.727,122.556,488.2z"/>
	<path style="fill:#C2BAB2;" d="M157.319,488.2V512H141.15v-23.8c0-4.473,3.611-8.084,8.084-8.084
		C153.697,480.116,157.319,483.727,157.319,488.2z"/>
	<path style="fill:#C2BAB2;" d="M358.249,488.2V512h-16.169v-23.8c0-4.473,3.622-8.084,8.084-8.084
		C354.627,480.116,358.249,483.727,358.249,488.2z"/>
	<path style="fill:#C2BAB2;" d="M393.011,488.2V512h-16.169v-23.8c0-4.473,3.622-8.084,8.084-8.084
		C389.389,480.116,393.011,483.727,393.011,488.2z"/>
</g>
</svg>