<?xml version="1.0" encoding="iso-8859-1"?>
<!-- Uploaded to: SVG Repo, www.svgrepo.com, Generator: SVG Repo Mixer Tools -->
<svg height="800px" width="800px" version="1.1" id="Layer_1" xmlns="http://www.w3.org/2000/svg" xmlns:xlink="http://www.w3.org/1999/xlink" 
	 viewBox="0 0 511.999 511.999" xml:space="preserve">
<g>
	<path style="fill:#F3437F;" d="M302.108,65.828c0,25.464-20.644,46.108-46.108,46.108s-46.108-20.644-46.108-46.108H302.108z"/>
	<polygon style="fill:#F3437F;" points="136.978,65.828 10.45,163.406 38.329,232.02 136.978,191.284 	"/>
	<polygon style="fill:#F3437F;" points="375.022,65.828 501.55,163.406 473.67,232.02 375.022,191.284 	"/>
</g>
<path style="fill:#FF85B4;" d="M302.108,65.828c0,25.464-20.644,46.108-46.108,46.108s-46.108-20.644-46.108-46.108h-72.914v273.473
	c0,0,85.702,58.973,85.702,106.869h33.321c0,0,6.64,0,33.321,0c0-47.896,85.702-106.869,85.702-106.869V65.828H302.108z"/>
<path style="fill:#D50707;" d="M256,256.383c0,0,25.491-18.863,43.226-37.387c4.922-5.623,7.974-12.318,7.974-19.688
	c0-15.679-12.827-28.437-28.589-28.437c-9.01,0-17.285,4.162-22.61,11.023c-5.326-6.86-13.6-11.023-22.61-11.023
	c-15.762,0-28.589,12.758-28.589,28.437c0,7.37,3.051,14.065,7.974,19.688C230.509,237.519,256,256.383,256,256.383z"/>
<path d="M175.587,129.134c-0.016,0-0.029,0-0.045,0c-5.75,0-10.424,4.65-10.448,10.405l-0.001,0.245
	c-0.024,5.771,4.635,10.469,10.405,10.493c0.016,0,0.029,0,0.045,0c5.75,0,10.424-4.65,10.448-10.405l0.001-0.244
	C186.016,133.856,181.358,129.158,175.587,129.134z"/>
<path d="M336.501,129.134c-0.016,0-0.029,0-0.045,0c-5.75,0-10.424,4.65-10.448,10.405l-0.001,0.245
	c-0.024,5.771,4.635,10.469,10.405,10.493c0.016,0,0.029,0,0.045,0c5.75,0,10.424-4.65,10.448-10.405l0.001-0.244
	C346.93,133.856,342.272,129.158,336.501,129.134z"/>
<path d="M507.931,155.131L381.403,57.554c-0.001,0.003-0.003,0.006-0.004,0.009c-1.765-1.364-3.973-2.184-6.377-2.184H136.978
	c-2.402,0-4.609,0.819-6.374,2.182c-0.002-0.002-0.005-0.004-0.007-0.007L4.069,155.131c-3.717,2.866-5.067,7.86-3.3,12.207
	l27.88,68.614c2.148,5.286,8.381,7.908,13.668,5.725l84.211-34.774v132.397c0,3.44,1.693,6.658,4.525,8.608
	c22.579,15.538,81.176,63.477,81.176,98.262c0,5.771,4.678,10.449,10.449,10.449h66.64c5.771,0,10.449-4.678,10.449-10.449
	c0-34.725,58.6-82.705,81.176-98.262c2.833-1.95,4.525-5.168,4.525-8.608V206.904l84.211,34.774
	c5.288,2.182,11.52-0.438,13.669-5.725l27.88-68.614C512.997,162.991,511.648,157.997,507.931,155.131z M126.53,184.293
	L44.054,218.35L23.12,166.83l103.409-79.748v97.212H126.53z M290.094,76.277c-4.477,14.579-18.065,25.21-34.094,25.21
	c-16.028,0-29.616-10.631-34.094-25.21H290.094z M364.573,333.925c-7.577,5.539-23.537,17.732-39.667,33.339
	c-25.991,25.148-41.08,48.117-45.001,68.456h-47.807c-3.921-20.339-19.011-43.308-45.001-68.456
	c-16.131-15.608-32.091-27.8-39.667-33.339V76.277h17.665v29.503c0,5.771,4.678,10.449,10.449,10.449
	c5.771,0,10.449-4.678,10.449-10.449V76.277h14.42c4.916,26.211,27.973,46.108,55.589,46.108c27.617,0,50.674-19.897,55.589-46.108
	h14.417v29.503c0,5.771,4.678,10.449,10.449,10.449c5.771,0,10.449-4.678,10.449-10.449V76.277h17.668V333.925z M467.946,218.35
	l-82.476-34.057V87.082L488.88,166.83L467.946,218.35z"/>
<path d="M256,266.831c-2.185,0-4.369-0.683-6.215-2.049c-1.07-0.792-26.416-19.612-44.558-38.561
	c-0.107-0.112-0.212-0.227-0.315-0.344c-6.909-7.891-10.561-17.079-10.561-26.571c0-21.442,17.512-38.886,39.038-38.886
	c8.267,0,16.104,2.528,22.61,7.145c6.507-4.617,14.343-7.145,22.61-7.145c21.526,0,39.038,17.443,39.038,38.886
	c0,9.491-3.652,18.679-10.561,26.571c-0.102,0.117-0.207,0.232-0.315,0.344c-18.143,18.95-43.488,37.769-44.558,38.561
	C260.369,266.148,258.185,266.831,256,266.831z M220.492,211.947c11.706,12.193,27.069,24.677,35.507,31.274
	c8.443-6.603,23.82-19.1,35.509-31.274c3.479-4.033,5.243-8.285,5.243-12.64c0-9.918-8.138-17.988-18.14-17.988
	c-5.68,0-10.912,2.544-14.356,6.981c-1.98,2.55-5.026,4.042-8.254,4.042c-3.228,0-6.275-1.492-8.254-4.042
	c-3.444-4.437-8.677-6.981-14.356-6.981c-10.003,0-18.14,8.07-18.14,17.988C215.249,203.662,217.013,207.914,220.492,211.947z"/>
</svg>