<?xml version="1.0" ?><!-- Uploaded to: SVG Repo, www.svgrepo.com, Generator: SVG Repo Mixer Tools -->
<svg width="800px" height="800px" viewBox="0 0 32 32" id="OBJECT" xmlns="http://www.w3.org/2000/svg"><defs><style>.cls-1{fill:#b2b2b2;}</style></defs><title/><path d="M16.74,2.89a6.7,6.7,0,0,0-6.58-1.62A1,1,0,0,0,9.47,2a6.77,6.77,0,0,0,1.67,6.63l.28.25.08.08a1.07,1.07,0,0,0,.66.24.78.78,0,0,0,.26,0A3,3,0,0,1,13.21,9H16a1,1,0,0,0,1-1V4a1.36,1.36,0,0,1,0-.2A1,1,0,0,0,16.74,2.89Z"/><path class="cls-1" d="M16,9a1,1,0,0,1-1-1V4a3,3,0,0,1,3-3h1a1,1,0,0,1,0,2H18a1,1,0,0,0-1,1V8A1,1,0,0,1,16,9Z"/><path class="cls-1" d="M29.62,9.55A5,5,0,0,0,26,8H19.5a2.8,2.8,0,0,0-2.8,2.93l.64,14.7A4.59,4.59,0,0,0,21.93,30H23.6a7,7,0,0,0,7-6.66L31,13.25A5,5,0,0,0,29.62,9.55Z"/><path class="cls-1" d="M14.53,8.87a2.81,2.81,0,0,0-2-.87H6a5,5,0,0,0-5,5.24l.4,10.11A7,7,0,0,0,8.4,30h1.67a4.61,4.61,0,0,0,4.6-4.38l.63-14.68A2.79,2.79,0,0,0,14.53,8.87Z"/><path d="M22.42,8.55A5,5,0,0,0,18.79,7H13.21a5,5,0,0,0-5,5.24l.6,14a5,5,0,0,0,5,4.75h4.38a5,5,0,0,0,5-4.76l.6-14A5,5,0,0,0,22.42,8.55Z"/></svg>