<?xml version="1.0" encoding="iso-8859-1"?>
<!-- Uploaded to: SVG Repo, www.svgrepo.com, Generator: SVG Repo Mixer Tools -->
<svg height="800px" width="800px" version="1.1" id="Layer_1" xmlns="http://www.w3.org/2000/svg" xmlns:xlink="http://www.w3.org/1999/xlink" 
	 viewBox="0 0 511.984 511.984" xml:space="preserve">
<g>
	<path style="fill:#7F4545;" d="M85.325,138.651c-5.891,0-10.656-4.765-10.656-10.655c0-5.891,4.766-10.672,10.656-10.672
		c8.938,0,14.719-3.047,18.202-9.609c2.922-5.484,3.125-11.406,3.141-11.781V63.997c0-5.89,4.766-10.671,10.656-10.671
		s10.672,4.781,10.672,10.671v31.999c0,1.078-0.141,10.796-5.125,20.765C115.808,130.886,102.48,138.651,85.325,138.651z"/>
	<path style="fill:#7F4545;" d="M426.658,138.651c-17.155,0-30.482-7.765-37.545-21.89c-4.984-9.969-5.125-19.687-5.125-20.765
		V63.997c0-5.89,4.781-10.671,10.672-10.671s10.655,4.781,10.655,10.671v31.937c0.016,0.375,0.219,6.297,3.141,11.781
		c3.484,6.562,9.266,9.609,18.202,9.609c5.891,0,10.656,4.781,10.656,10.672C437.314,133.886,432.549,138.651,426.658,138.651z"/>
</g>
<g>
	<path style="fill:#965353;" d="M469.314,202.65c-21.438,0-38.094-9.656-46.875-27.218c-6.265-12.562-6.452-24.765-6.452-26.108
		V63.997c0-5.89,4.781-10.671,10.671-10.671c5.891,0,10.656,4.781,10.656,10.671v85.326c0,0.031,0.156,8.812,4.484,17.109
		c5.25,10.015,14.25,14.89,27.516,14.89c5.89,0,10.671,4.781,10.671,10.672C479.985,197.884,475.204,202.65,469.314,202.65z"/>
	<path style="fill:#965353;" d="M42.67,202.65c-5.891,0-10.671-4.766-10.671-10.656c0-5.891,4.78-10.672,10.671-10.672
		c13.266,0,22.266-4.875,27.515-14.89c4.328-8.296,4.484-17.078,4.484-17.171V63.997c0-5.89,4.766-10.671,10.656-10.671
		s10.672,4.781,10.672,10.671v85.326c0,1.344-0.188,13.546-6.453,26.108C80.763,192.994,64.107,202.65,42.67,202.65z"/>
</g>
<g>
	<path style="fill:#A85D5D;" d="M42.67,53.326H10.671C4.78,53.326,0,58.107,0,63.997v383.989c0,5.891,4.78,10.672,10.671,10.672
		H42.67c5.891,0,10.656-4.781,10.656-10.672V63.997C53.326,58.107,48.56,53.326,42.67,53.326z"/>
	<path style="fill:#A85D5D;" d="M501.312,53.326h-31.998c-5.891,0-10.656,4.781-10.656,10.671v383.989
		c0,5.891,4.766,10.672,10.656,10.672h31.998c5.891,0,10.672-4.781,10.672-10.672V63.997
		C511.984,58.107,507.203,53.326,501.312,53.326z"/>
</g>
<g>
	<path style="fill:#ED5564;" d="M181.322,383.988c-5.891,0-10.656-4.781-10.656-10.672V63.997c0-5.89,4.766-10.671,10.656-10.671
		s10.672,4.781,10.672,10.671v309.319C191.994,379.207,187.213,383.988,181.322,383.988z"/>
	<path style="fill:#ED5564;" d="M330.662,383.988c-5.891,0-10.672-4.781-10.672-10.672V63.997c0-5.89,4.781-10.671,10.672-10.671
		s10.655,4.781,10.655,10.671v309.319C341.317,379.207,336.553,383.988,330.662,383.988z"/>
</g>
<path style="fill:#FFD2A6;" d="M351.989,319.99H159.995c-5.891,0-10.672,4.781-10.672,10.672v31.998
	c0,5.891,4.781,10.656,10.672,10.656h191.994c5.89,0,10.671-4.766,10.671-10.656v-31.998
	C362.66,324.771,357.879,319.99,351.989,319.99z"/>
</svg>