<?xml version="1.0" encoding="iso-8859-1"?>
<!-- Uploaded to: SVG Repo, www.svgrepo.com, Generator: SVG Repo Mixer Tools -->
<svg version="1.1" id="Layer_1" xmlns="http://www.w3.org/2000/svg" xmlns:xlink="http://www.w3.org/1999/xlink" 
	 viewBox="0 0 512.003 512.003" xml:space="preserve">
<rect x="36.57" y="73.703" style="fill:#FF3C63;" width="438.862" height="398.718"/>
<polygon style="fill:#EEE5DD;" points="475.428,330.108 265.406,330.108 265.406,216.015 475.428,216.015 475.428,197.203 
	36.571,197.203 36.571,216.015 246.595,216.015 246.595,330.108 36.571,330.108 36.571,348.92 136.879,348.92 136.879,472.42 
	155.691,472.42 155.691,348.92 356.308,348.92 356.308,472.42 375.119,472.42 375.119,348.92 475.428,348.92 "/>
<path style="opacity:0.3;fill:#20272E;enable-background:new    ;" d="M36.571,299.908c30.537,0,55.383-24.845,55.383-55.384
	v-81.148c0-9.934,7.669-18.289,17.095-18.625c0.222-0.008,0.444-0.011,0.665-0.011c9.793,0,17.759,7.967,17.759,17.759v194.468
	c0,14.427,5.413,28.177,15.242,38.716c10.049,10.774,23.593,16.992,38.14,17.509c0.668,0.025,1.338,0.036,2.002,0.036
	c30.539,0,55.383-24.845,55.383-55.384V193.747c0-9.934,7.669-18.289,17.095-18.625c0.222-0.008,0.444-0.013,0.665-0.013
	c9.793,0,17.759,7.967,17.759,17.761v37.573c0,14.427,5.413,28.176,15.242,38.714c10.048,10.774,23.594,16.992,38.139,17.509
	c0.67,0.024,1.338,0.036,2.003,0.036c30.539,0,55.384-24.845,55.384-55.384V150.17c0-9.934,7.669-18.289,17.095-18.625
	c0.222-0.008,0.444-0.013,0.665-0.013c9.793,0,17.759,7.967,17.759,17.761V283.26c0,14.427,5.413,28.176,15.242,38.715
	c10.049,10.774,23.593,16.992,38.14,17.509c0.668,0.025,1.337,0.036,2.002,0.036l0,0V73.703H36.571V299.908z"/>
<path style="fill:#00C279;" d="M474.041,39.582H37.959C16.994,39.582,0,56.576,0,77.54v166.109c0,19.83,15.42,36.719,35.238,37.424
	c20.806,0.74,37.905-15.907,37.905-36.547v-81.148c0-19.83,15.42-36.719,35.238-37.424c20.806-0.74,37.905,15.907,37.905,36.547
	V356.97c0,19.83,15.42,36.719,35.238,37.424c20.806,0.74,37.905-15.907,37.905-36.547V193.748c0-19.83,15.421-36.719,35.238-37.424
	c20.806-0.74,37.905,15.907,37.905,36.547v37.573c0,19.83,15.421,36.719,35.238,37.424c20.806,0.74,37.905-15.907,37.905-36.547
	v-81.148c0-19.83,15.42-36.719,35.238-37.424c20.806-0.74,37.905,15.907,37.905,36.547v133.966c0,19.83,15.42,36.719,35.238,37.424
	c20.806,0.74,37.905-15.907,37.905-36.547V77.54C512,56.576,495.004,39.582,474.041,39.582z"/>
<path style="fill:#00E891;" d="M474.041,39.582H37.959C16.994,39.582,0,56.576,0,77.54v37.623C0,94.2,16.994,77.205,37.959,77.205
	h436.083C495.006,77.205,512,94.2,512,115.163V77.54C512,56.576,495.004,39.582,474.041,39.582z"/>
</svg>