<?xml version="1.0" encoding="iso-8859-1"?>
<!-- Uploaded to: SVG Repo, www.svgrepo.com, Generator: SVG Repo Mixer Tools -->
<svg height="800px" width="800px" version="1.1" id="Layer_1" xmlns="http://www.w3.org/2000/svg" xmlns:xlink="http://www.w3.org/1999/xlink" 
	 viewBox="0 0 512 512" xml:space="preserve">
<path style="fill:#FF648D;" d="M256,512c0,0,0.003,0,0.008,0c16.979,0,32.541-9.502,40.289-24.61l0,0
	c18.564-36.198,49.508-64.529,87.201-79.835l9.727-3.95l-10.066-23.851c-31.813-75.375-31.504-160.466,0.857-235.608l0,0L370.2,0
	H322.31v67.456c0,36.622-29.688,66.31-66.31,66.31l0,0l0,0c-36.622,0-66.31-29.688-66.31-66.31V0h-47.891l-13.815,144.145l0,0
	c32.36,75.142,32.669,160.233,0.857,235.608l-10.066,23.851l9.727,3.95c37.692,15.307,68.636,43.637,87.201,79.835l0,0
	c7.748,15.108,23.308,24.61,40.289,24.61C255.997,512,256,512,256,512z"/>
<path style="fill:#FD387E;" d="M256,512c0,0,0.003,0,0.008,0c16.979,0,32.541-9.502,40.289-24.61l0,0
	c18.564-36.198,49.508-64.529,87.201-79.835l9.727-3.95l-10.066-23.851c-31.813-75.375-31.504-160.466,0.857-235.608l0,0L370.2,0
	H322.31v67.456c0,36.622-29.688,66.31-66.31,66.31l0,0l0,0c0,69.921-0.008,313.678-0.008,378.234C255.997,512,256,512,256,512z"/>
</svg>