<?xml version="1.0" encoding="iso-8859-1"?>
<!-- Uploaded to: SVG Repo, www.svgrepo.com, Generator: SVG Repo Mixer Tools -->
<svg height="800px" width="800px" version="1.1" id="Layer_1" xmlns="http://www.w3.org/2000/svg" xmlns:xlink="http://www.w3.org/1999/xlink" 
	 viewBox="0 0 512 512" xml:space="preserve">
<g>
	<path style="fill:#28CC9E;" d="M55.274,237.027c3.538-73.449,71.886-132.031,155.682-132.031H55.13L55.274,237.027z"/>
	<path style="fill:#28CC9E;" d="M212.001,105.007c-0.348-0.002-0.696-0.011-1.045-0.011l1.045,0.887V105.007z"/>
</g>
<path style="fill:#315C7C;" d="M32.835,215.719L32.835,215.719c-11.987,0-21.704-9.717-21.704-21.704v-46.005
	c0-11.987,9.717-21.704,21.704-21.704l0,0c11.987,0,21.704,9.717,21.704,21.704v46.005
	C54.539,206.001,44.822,215.719,32.835,215.719z"/>
<path style="fill:#FAEE1C;" d="M325.589,293.843H186.411c1.831,7.115,2.806,14.574,2.806,22.261s-0.974,15.145-2.806,22.261h25.067
	h66.783h47.327c-1.831-7.116-2.806-14.574-2.806-22.261S323.757,300.958,325.589,293.843z"/>
<g>
	<circle style="fill:#315C7C;" cx="100.174" cy="316.104" r="89.043"/>
	<circle style="fill:#315C7C;" cx="411.826" cy="316.104" r="89.043"/>
</g>
<g>
	<circle style="fill:#20B0B7;" cx="411.826" cy="316.104" r="44.522"/>
	<circle style="fill:#20B0B7;" cx="100.174" cy="316.104" r="44.522"/>
</g>
<path d="M439.022,219.684l-109.165-80.01c-1.037-0.93-2.087-1.853-3.154-2.763c-31.18-26.561-72.101-41.189-115.224-41.189H55.652
	c-2.954,0-5.787,1.174-7.875,3.265c-2.087,2.09-3.259,4.924-3.256,7.878l0.011,10.472c-3.636-1.391-7.579-2.162-11.698-2.162
	C14.729,115.174,0,129.903,0,148.009v46.005c0,18.106,14.729,32.835,32.835,32.835c4.164,0,8.146-0.788,11.815-2.207l0.009,8.122
	C17.755,250.743,0,281.387,0,316.104c0,55.236,44.938,100.174,100.174,100.174c43.532,0,80.661-27.915,94.444-66.783h16.86
	c6.146,0,11.13-4.984,11.13-11.13s-4.984-11.13-11.13-11.13h-11.745c0.016-0.141,0.026-0.283,0.041-0.424
	c0.056-0.522,0.105-1.045,0.152-1.569c0.032-0.36,0.068-0.72,0.096-1.081c0.045-0.56,0.081-1.123,0.116-1.685
	c0.021-0.328,0.046-0.657,0.062-0.985c0.032-0.617,0.056-1.235,0.077-1.855c0.01-0.279,0.024-0.558,0.032-0.837
	c0.023-0.895,0.037-1.793,0.037-2.694c0-0.9-0.013-1.799-0.037-2.694c-0.008-0.279-0.022-0.558-0.032-0.837
	c-0.021-0.62-0.045-1.239-0.077-1.855c-0.018-0.328-0.042-0.657-0.062-0.985c-0.036-0.563-0.071-1.125-0.116-1.685
	c-0.029-0.361-0.063-0.72-0.096-1.081c-0.048-0.524-0.097-1.047-0.152-1.569c-0.014-0.141-0.026-0.283-0.041-0.424h56.219
	c0.013,0,0.028,0.002,0.041,0.002c0.006,0,0.01-0.001,0.016-0.001l0,0c0.01,0,0.02-0.001,0.03-0.001h56.228
	c-0.016,0.14-0.026,0.283-0.041,0.423c-0.056,0.524-0.105,1.05-0.152,1.576c-0.032,0.357-0.067,0.713-0.096,1.071
	c-0.046,0.562-0.081,1.128-0.117,1.692c-0.021,0.327-0.045,0.653-0.062,0.982c-0.033,0.622-0.056,1.247-0.077,1.871
	c-0.01,0.273-0.023,0.545-0.031,0.819c-0.025,0.897-0.038,1.796-0.038,2.697c0,0.902,0.013,1.8,0.037,2.696
	c0.008,0.274,0.022,0.547,0.031,0.819c0.022,0.624,0.045,1.249,0.077,1.871c0.018,0.327,0.042,0.655,0.062,0.982
	c0.036,0.565,0.071,1.13,0.117,1.692c0.029,0.357,0.063,0.715,0.096,1.071c0.048,0.526,0.097,1.052,0.152,1.576
	c0.014,0.14,0.026,0.283,0.041,0.423h-34.005c-6.146,0-11.13,4.984-11.13,11.13s4.984,11.13,11.13,11.13h39.121
	c13.783,38.867,50.912,66.783,94.444,66.783c55.236,0,100.174-44.938,100.174-100.174C512,270.291,481.085,231.564,439.022,219.684z
	 M43.409,194.015c0,5.83-4.744,10.574-10.574,10.574s-10.574-4.744-10.574-10.574v-46.005c0-5.83,4.744-10.574,10.574-10.574
	s10.574,4.744,10.574,10.574V194.015z M376.537,222.354c-1.508-8.929-3.898-17.662-7.145-26.105l28.232,20.693
	C390.313,217.984,383.255,219.817,376.537,222.354z M309.235,151.127l-25.951,56.56l-9.151-5.278l5.89-5.89
	c4.346-4.346,4.346-11.394,0-15.742c-4.348-4.345-11.393-4.345-15.742,0l-32.304,32.304c-4.346,4.346-4.346,11.394,0,15.742
	c2.174,2.173,5.022,3.26,7.87,3.26c2.848,0,5.697-1.087,7.87-3.26l10.116-10.116l16.126,9.301l-19.952,43.488l-33.394-47.987
	c-2.08-2.991-5.494-4.773-9.136-4.773H139.97l14.798-31.46c0.697-1.481,1.059-3.099,1.059-4.737v-54.895
	c17.135-6.227,35.932-9.661,55.652-9.661C249.166,117.983,283.485,130.491,309.235,151.127z M123.63,117.983
	c-9.714,5.379-18.865,11.686-27.302,18.865c-11.697,9.952-21.58,21.188-29.477,33.37l-0.057-52.235H123.63z M133.565,137.815v42.238
	L116.093,217.2c-5.187-0.831-10.502-1.27-15.919-1.27c-10.745,0-21.097,1.707-30.807,4.853
	C76.96,185.81,100.746,156.156,133.565,137.815z M100.174,394.017c-42.961,0-77.913-34.952-77.913-77.913
	s34.952-77.913,77.913-77.913c37.571,0,69.015,26.732,76.315,62.175c0.007,0.035,0.014,0.07,0.021,0.105
	c0.253,1.238,0.477,2.487,0.671,3.745c0.007,0.046,0.012,0.092,0.02,0.139c0.176,1.154,0.321,2.32,0.445,3.489
	c0.017,0.154,0.036,0.308,0.051,0.462c0.116,1.156,0.203,2.321,0.266,3.492c0.013,0.238,0.023,0.476,0.033,0.715
	c0.055,1.191,0.091,2.387,0.091,3.592s-0.037,2.4-0.091,3.592c-0.011,0.238-0.021,0.476-0.033,0.716
	c-0.063,1.171-0.15,2.335-0.266,3.49c-0.016,0.155-0.035,0.308-0.051,0.462c-0.124,1.171-0.269,2.335-0.445,3.489
	c-0.007,0.047-0.012,0.092-0.02,0.139c-0.194,1.259-0.417,2.507-0.67,3.745c-0.008,0.036-0.014,0.07-0.022,0.106
	C169.188,367.285,137.745,394.017,100.174,394.017z M194.618,282.713c-5.754-16.227-15.577-30.542-28.238-41.716h39.284
	l29.03,41.716H194.618z M273.352,282.713l25.109-54.727c0.002-0.004,0.003-0.008,0.006-0.011l27.796-60.582
	c16.23,18.499,26.773,41.095,29.314,65.863c-17.479,11.905-31.009,29.193-38.195,49.458h-44.03V282.713z M411.826,394.017
	c-37.57,0-69.014-26.731-76.314-62.172c-0.008-0.036-0.014-0.072-0.022-0.109c-0.253-1.238-0.476-2.485-0.67-3.743
	c-0.007-0.046-0.013-0.092-0.02-0.139c-0.176-1.154-0.321-2.32-0.445-3.489c-0.017-0.154-0.036-0.308-0.051-0.462
	c-0.116-1.155-0.203-2.32-0.266-3.489c-0.013-0.239-0.022-0.479-0.033-0.718c-0.055-1.191-0.091-2.386-0.091-3.59
	c0-1.203,0.037-2.4,0.091-3.59c0.011-0.239,0.021-0.479,0.033-0.718c0.065-1.17,0.15-2.334,0.266-3.489
	c0.016-0.155,0.034-0.308,0.051-0.462c0.124-1.171,0.269-2.335,0.445-3.489c0.007-0.047,0.012-0.092,0.02-0.139
	c0.194-1.258,0.417-2.507,0.67-3.744c0.008-0.036,0.016-0.072,0.022-0.108c7.299-35.443,38.744-62.175,76.314-62.175
	c42.961,0,77.913,34.952,77.913,77.913S454.787,394.017,411.826,394.017z"/>
<path d="M411.826,260.452c-30.687,0-55.652,24.966-55.652,55.652s24.966,55.652,55.652,55.652s55.652-24.966,55.652-55.652
	S442.513,260.452,411.826,260.452z M411.826,349.496c-18.412,0-33.391-14.979-33.391-33.391s14.979-33.391,33.391-33.391
	s33.391,14.979,33.391,33.391S430.238,349.496,411.826,349.496z"/>
<path d="M100.174,260.452c-30.687,0-55.652,24.966-55.652,55.652s24.966,55.652,55.652,55.652s55.652-24.966,55.652-55.652
	S130.861,260.452,100.174,260.452z M100.174,349.496c-18.412,0-33.391-14.979-33.391-33.391s14.979-33.391,33.391-33.391
	s33.391,14.979,33.391,33.391S118.586,349.496,100.174,349.496z"/>
<path d="M255.142,334.102c-0.278-0.669-0.623-1.313-1.024-1.914c-0.4-0.613-0.867-1.181-1.38-1.693
	c-0.512-0.512-1.08-0.979-1.692-1.38c-0.601-0.4-1.247-0.746-1.926-1.024c-0.668-0.278-1.368-0.501-2.08-0.646
	c-1.436-0.278-2.905-0.278-4.341,0c-0.712,0.145-1.414,0.367-2.081,0.646c-0.679,0.278-1.323,0.624-1.924,1.024
	c-0.613,0.401-1.181,0.868-1.693,1.38c-0.512,0.512-0.979,1.08-1.38,1.693c-0.412,0.601-0.746,1.245-1.024,1.914
	c-0.278,0.679-0.501,1.38-0.646,2.093s-0.211,1.447-0.211,2.17c0,0.722,0.067,1.458,0.21,2.17c0.145,0.712,0.367,1.414,0.646,2.08
	c0.278,0.679,0.612,1.325,1.024,1.926c0.401,0.612,0.868,1.18,1.38,1.692c0.512,0.513,1.08,0.981,1.693,1.38
	c0.601,0.401,1.245,0.746,1.924,1.024c0.669,0.278,1.369,0.501,2.081,0.634c0.712,0.145,1.447,0.223,2.17,0.223
	c0.722,0,1.458-0.078,2.17-0.223c0.712-0.134,1.414-0.356,2.08-0.634c0.679-0.278,1.325-0.623,1.926-1.024
	c0.612-0.4,1.18-0.867,1.692-1.38c0.513-0.512,0.981-1.08,1.38-1.692c0.401-0.601,0.746-1.247,1.024-1.926
	c0.278-0.668,0.501-1.368,0.634-2.08c0.145-0.713,0.223-1.448,0.223-2.17c0-0.723-0.078-1.459-0.223-2.17
	C255.644,335.482,255.42,334.781,255.142,334.102z"/>
</svg>