<?xml version="1.0" ?>
<!-- Uploaded to: SVG Repo, www.svgrepo.com, Generator: SVG Repo Mixer Tools -->
<svg width="800px" height="800px" viewBox="0 0 960 960" version="1.1" xml:space="preserve" xmlns="http://www.w3.org/2000/svg" xmlns:xlink="http://www.w3.org/1999/xlink">
<style type="text/css">
	.st0{display:none;}
	.st1{display:inline;opacity:0.93;}
	.st2{display:inline;}
	.st3{fill:none;stroke:#000000;stroke-width:15;stroke-linecap:round;stroke-linejoin:round;stroke-miterlimit:10;}
	.st4{display:inline;fill:none;stroke:#000000;stroke-width:15;stroke-linecap:round;stroke-linejoin:round;stroke-miterlimit:10;}
	.st5{fill:#222222;}
	.st6{fill:#DDEDE7;}
	.st7{fill:#1A1D3F;}
	.st8{fill:#ED644E;}
	.st9{fill:#E9B44D;}
	.st10{fill:#3DC5A1;}
	.st11{fill:#494EDF;}
</style>
<g class="st0" id="guide"/>
<g class="st0" id="sketch"/>
<g class="st0" id="stroke">
<path class="st4" d="M373.3,389.8c29.5-0.5,61.1,1.2,89-0.8c-17.9,39.8-37.5,96.1-61.3,155.8c-4.5,11.4,10.1,20.5,18.3,11.5   c68.2-74.5,113.4-127.4,187.8-216c6-7.2,0.9-18.2-8.6-18.1c-42.6,0.5-58.5,2.1-100-0.2c-2-0.1,13.9-87,24.9-145.9   c2.2-11.8-13.3-18.1-19.9-8.1c-38.4,57.3-104.1,155-139.4,204.3C358.9,379.8,364.3,390,373.3,389.8z"/>
<path class="st4" d="M192.1,646.7c-14.9,25.1-12.8,58.7,3.9,82.7s46.5,37.5,75.6,36c27.7-1.4,54.8-16.5,69.2-40.2   c14.5-23.7,15.2-55.5,0.6-79.1C312.5,599.2,220.4,599.2,192.1,646.7z"/>
<path class="st4" d="M624.5,653.4c-13.9,35.1,0,78.6,30.8,100.4c30.8,21.8,75.3,20.9,106.2-0.8c28.1-19.8,40.5-57.2,31.6-90.5   C773.4,588.8,652.3,583,624.5,653.4z"/>
<path class="st4" d="M239.3,675.8c-4.5,11.8-1.2,26.1,8.1,34.7c9.3,8.6,23.9,10.8,35.2,5.3c11.4-5.4,18.8-18.2,18-30.8   c-0.5-7.9-4.2-15.6-10.3-20.6C273.6,650.6,247.4,654.6,239.3,675.8z"/>
<path class="st4" d="M688,655.1c-9.4,6.6-14.8,18.4-14.2,29.9c0.5,9.4,4.9,18.5,12,24.6c7.1,6.1,16.8,9.2,26.1,8   c13.6-1.7,25.5-13,28-26.5C745,662.7,712.9,637.5,688,655.1z"/>
<path class="st4" d="M619.2,685.9c-43.7,0.4-223.4,0.7-267.1,1.1"/>
<path class="st4" d="M649.1,341.6c58,0.2,72.3,0.3,104.9-0.2c58.2-1,97.6,30.1,102.4,78.5c5.9,59.4,7.6,186.7,4.4,244.1   c-0.7,12.7-8.9,16.6-17.5,17.6c-16.1,2-30.9,0.8-47.5,2.2"/>
<path class="st4" d="M182.1,689c-19.1,0.4-43.9,1.6-62.6,2.2c-8.2,0.3-15.3-5.7-16.6-13.9c-5.4-35-13.5-243.7,16-290.6   c34-54,77.5-45.4,150.3-45.9c20.9-0.3,42.6-0.4,75.8-0.4"/>
<path class="st4" d="M97.6,564.2c24.7,0.4,28.8,2.6,32.9,7.7c6.9,8.7,6.2,20.7,6.2,31.8c0,8.2,0.1,16.5,0.1,24.7   c0,6.9,0,17.3-3.2,23.4c-4.1,7.9-12.7,9.5-21.5,11.1c-2.1,0.4-6.6,0.6-10.8,0.7"/>
<path class="st4" d="M861.7,527.3c-4.7,0.6-9.3,1.7-13.6,3.4c-11.4,4.6-21.2,14.4-23.7,26.5c-3.1,15.2,6.1,31.3,19.5,39.2   c5.7,3.4,12,5.5,18.5,6.5"/>
<path class="st4" d="M821.8,494.6c-44.9-0.6-103.9,0.6-148.8,0c-1.4-37.6-1.6-69.9-1.2-108.7c58.8-0.9,65.4-1.2,107.6,0.2   c17.6,0.6,26.1,10.8,30.3,20.2C821,431.7,823.1,467,821.8,494.6z"/>
<path class="st4" d="M141.5,498.2c44.9-0.7,63.9-0.5,108.9-1.3c1.3-37.6,1.4-69.9,0.8-108.7c-20.9-0.4-52.7,0.1-67.6,1.3   c-17.6,1.5-26.1,10.9-30.2,20.3C142.1,435.3,140.1,470.6,141.5,498.2z"/>
<path class="st4" d="M764.9,494.5c8.5-10.8,17.9-25,23.8-32.5"/>
<path class="st4" d="M524.4,495.4c1.1,67.6,2.3,98.2,3.4,165.8c34.2-0.1,53.4,2.4,60.1-10.2c2.9-5.4,8.4-16.4,17.8-29.9   c4.9-7,15.9-18.7,28.3-28.6c5.4-4.3,3.8-17.9,3.6-28.6c-1.3-61.2-2.7-117.3-4-178.5c-10.4,0-21.1,0.5-21.1,0.5"/>
<path class="st4" d="M549.2,471.8c0,0,0.6,16.9,0.9,25.8c18.8-1.1,41.7-0.6,60.5-1.7c0-27.5-2.4-83.7-2.4-83.7l-15.2,0.4"/>
<path class="st4" d="M318.2,387.1c-13.8,0.3-20.4,0.7-35.5,0.5c0.3,35.7,0.5,74.3,0.8,110c35.3-0.8,69.4-0.8,104.8-1.6   c-1.1-25.1,0.2-47.6-0.9-72.6"/>
</g>
<g id="outline">
<path class="st5" d="M373.4,397.3c10.8-0.2,22.1,0,33.1,0.1c14.7,0.2,29.7,0.3,44.1-0.2c-9.5,22.2-19.6,48.8-30.1,76.6   c-8.4,22-17,44.7-26.4,68.3c-3.4,8.4-0.4,17.7,7.3,22.5c3.1,1.9,6.5,2.9,9.9,2.9c5,0,9.9-2.1,13.6-6.1   c68.1-74.5,113.1-126.9,188.1-216.2c4.7-5.6,5.7-13.2,2.6-19.8c-3.1-6.5-9.5-10.6-16.7-10.6c-0.1,0-0.1,0-0.2,0   c-11.9,0.1-21.9,0.4-30.6,0.6c-20.7,0.5-36.2,0.8-61.3-0.3c1.6-11.9,7-45,24.3-137.4c1.7-8.9-2.8-17.1-11.2-20.5   c-8.4-3.4-17.3-0.7-22.4,6.8C460.5,218.8,393.6,318.4,358,368.1c-4.1,5.7-4.6,13.1-1.3,19.3C360,393.6,366.3,397.4,373.4,397.3z    M370.2,376.8c35.6-49.9,102.7-149.6,139.5-204.5c1.4-2.1,3.2-1.7,4.2-1.3c1,0.4,2.6,1.4,2.1,3.9c-7.2,38.3-12.9,70-17.2,94.1   c-9.4,53.8-9,54.4-6.3,57.8c1.3,1.7,3.4,2.8,5.6,2.9c30.3,1.6,46.9,1.3,70,0.7c8.7-0.2,18.6-0.4,30.5-0.6c2,0,2.9,1.4,3.2,2   c0.3,0.6,0.8,2.2-0.5,3.8C526.6,424.7,481.7,477,413.8,551.3c-1.7,1.9-3.5,1.2-4.4,0.6c-0.9-0.6-2.3-1.9-1.4-4.3   c9.5-23.7,18.1-46.5,26.5-68.5c12.3-32.4,24-63.1,34.7-87c1.1-2.4,0.8-5.2-0.7-7.4c-1.4-2-3.7-3.2-6.1-3.2c-0.2,0-0.4,0-0.5,0   c-17.3,1.2-36.5,1-55.1,0.8c-11.1-0.1-22.5-0.2-33.5-0.1c-1.9,0-2.9-1.3-3.2-1.9C369.6,379.7,369.2,378.3,370.2,376.8z M242.3,716   c7.3,6.7,17.1,10.3,26.9,10.3c5.7,0,11.4-1.2,16.6-3.7c14.1-6.8,23.3-22.4,22.2-38c-0.7-10.2-5.4-19.7-13-25.9   c-10.5-8.7-24.4-11.8-37.3-8.4c-11.8,3.1-21.1,11.5-25.5,22.9c0,0,0,0,0,0C226.7,687.7,230.8,705.3,242.3,716z M246.3,678.4   c2.7-7,8.1-11.9,15.3-13.8c8.2-2.2,17.1-0.1,23.9,5.5c4.3,3.6,7.2,9.3,7.6,15.3c0.6,9.5-5.1,19.4-13.7,23.5   c-8.6,4.1-19.9,2.4-26.9-4.1C245.5,698.5,242.9,687.3,246.3,678.4z M680.8,715.3c7.5,6.5,17.3,10.1,27,10.1c1.7,0,3.3-0.1,4.9-0.3   c16.9-2.2,31.3-15.9,34.4-32.6c3.1-16.9-4.9-34.6-19.8-44.2c-14.1-9-30.4-8.7-43.8,0.7c0,0,0,0,0,0c-11.3,8-18.1,22.3-17.4,36.4   C666.9,696.9,672.2,707.8,680.8,715.3z M692.3,661.2L692.3,661.2c11.8-8.3,22.8-3,27-0.3c8.2,5.2,15.5,16.2,13.1,28.8   c-1.9,10.3-11.2,19.1-21.6,20.4c-7.1,0.9-14.7-1.4-20.3-6.2c-5.5-4.8-9-12-9.4-19.4C680.8,675.4,685.1,666.3,692.3,661.2z    M90.1,564.5c0.2,40.6,1.9,77.7,3.7,99.1c0,0.1,0,0.1,0,0.2c0,0.4,0.1,0.7,0.1,1.1c0.5,5.9,1,10.6,1.5,13.7   c1.8,11.7,11.8,20.2,23.5,20.2c0.3,0,0.5,0,0.8,0c7.2-0.2,15.2-0.5,23.6-0.9c10.9-0.4,22-0.9,32.1-1.2c1.8,13.1,6.7,25.9,14.4,37   c16.9,24.2,46.8,39.4,77.4,39.4c1.6,0,3.2,0,4.8-0.1c30.9-1.6,59.7-18.4,75.2-43.8c6.5-10.6,10.4-22.6,11.7-34.7   c25.7-0.2,78-0.3,128.8-0.5c49-0.2,99.4-0.3,124.6-0.5c0.7,5.8,1.9,11.6,3.7,17.4c6.3,20.1,18.7,37.6,35,49.1   c16.2,11.5,36.2,17.2,56.3,17.2c20.6,0,41.4-6,58.5-18c22-15.5,35.4-41.2,37.4-68.2c4.9-0.2,9.8-0.3,14.5-0.4   c8.6-0.1,17.4-0.3,26.7-1.4c19.9-2.5,23.6-16.5,24-24.6c3.1-56.9,1.7-183.8-4.4-245.2c-5.2-52.9-48.4-86.3-110-85.3   c-32.3,0.5-45.9,0.5-104.8,0.2c0,0,0,0,0,0c-4.1,0-7.5,3.3-7.5,7.5c0,4.1,3.3,7.5,7.5,7.5c59,0.2,72.6,0.3,105.1-0.2   c26.7-0.5,49.7,6.2,66.5,19.2c16.4,12.7,26.2,30.8,28.3,52.6c2.5,24.9,4.2,61.8,5.1,100.4c-3.1,0.7-6,1.6-8.8,2.7   c-14.6,5.9-25.4,18.1-28.2,31.9c-3.6,17.6,5.8,37,23,47.1c4.5,2.7,9.4,4.7,14.8,6.1c-0.2,21.3-0.7,40.3-1.4,54.6   c-0.4,6.8-3.3,9.6-10.9,10.6c-8.4,1-16.5,1.2-25.1,1.3c-4.7,0.1-9.4,0.2-14.4,0.4c-0.5-5.1-1.3-10.3-2.7-15.3   c-9.7-36.4-44-61.5-87.3-64c-19.9-1.2-39.9,2.9-56.4,11.5c-18.3,9.6-31.9,24.3-39.1,42.7c-3.5,8.8-5.4,18.2-5.8,27.8   c-25.2,0.2-75.4,0.3-124,0.5c-50.4,0.2-102.4,0.3-128.3,0.5c-0.8-13.2-4.6-26.2-11.5-37.3c-14.9-24.1-46.4-38.9-82.1-38.6   c-35.1,0.3-65.8,15.4-80,39.4c0,0,0,0,0,0c-7,11.7-10.6,25.1-11.1,38.8c-10.1,0.3-21.1,0.7-31.9,1.1c-8.4,0.3-16.3,0.6-23.5,0.9   c-4.4,0.1-8.2-3.1-8.9-7.5c-0.2-1.5-0.5-3.4-0.7-5.5c1.5-0.1,2.8-0.3,3.8-0.4c9.4-1.7,21.1-3.7,26.9-15c3.7-7.2,4-17.2,4-26.9   c0-8.2-0.1-16.5-0.1-24.7c0-1,0-1.9,0-2.9c0-11,0.1-23.5-7.8-33.5c-5.7-7.2-12.4-9.6-31.2-10.3c0.1-67.4,4.7-141.7,20.1-166.2   c27.3-43.4,60.9-43,116.6-42.5c8.7,0.1,17.8,0.2,27.5,0.1c20.3-0.3,41.5-0.4,75.7-0.4c0,0,0,0,0,0c4.1,0,7.5-3.4,7.5-7.5   c0-4.1-3.4-7.5-7.5-7.5c-34.3,0-55.6,0.1-75.9,0.4c-9.5,0.1-18.5,0-27.2-0.1c-56.7-0.5-97.6-0.9-129.4,49.5   c-18,28.6-22.7,110.3-22.4,181.2c0,0.1,0,0.1,0,0.2C90.1,564.2,90.1,564.3,90.1,564.5z M847.7,589.9c-11.6-6.8-18.3-19.9-15.9-31.2   c1.9-9,9.2-17,19.2-21.1c1.1-0.5,2.3-0.8,3.5-1.2c0.4,19.3,0.5,38.6,0.5,56.8C852.3,592.3,849.9,591.2,847.7,589.9z M631.5,656.1   c8.8-22.3,35.2-47.3,80.7-44.7c27.9,1.6,64,16.4,73.7,52.9c1.7,6.3,2.5,12.8,2.6,19.2c0,0.2,0,0.3,0,0.5   c0.1,24.7-11.4,48.8-31.3,62.8c-28.6,20.2-69.7,20.5-97.5,0.8C631.4,727.7,619.1,687.5,631.5,656.1z M198.6,650.6L198.6,650.6   c11.6-19.5,37.4-31.8,67.3-32.1c0.3,0,0.7,0,1,0c30.1,0,56.1,12,68.2,31.5c12.9,20.8,12.6,49.5-0.7,71.3   c-13,21.2-37.2,35.3-63.2,36.6c-27.1,1.4-54.2-11.5-69.1-32.8C187,703.3,185.5,672.6,198.6,650.6z M124.6,576.6   c4.6,5.8,4.6,14.7,4.6,24.1c0,1,0,2,0,3c0,8.2,0.1,16.5,0.1,24.7c0,5.4,0,15.4-2.3,20c-2.3,4.4-7.6,5.6-16.2,7.1   c-0.5,0.1-1.3,0.2-2.5,0.3c-1.5-20.2-2.8-50.6-3-83.8C121.5,572.6,123,574.5,124.6,576.6z M672.9,502.1c9.5,0.1,19.7,0.2,30.2,0.2   c14.5,0,29.5-0.1,44.3-0.2c5.8,0,11.6-0.1,17.5-0.1c0,0,0,0,0,0s0,0,0,0c19.8-0.1,39.5-0.1,56.8,0.1c4.1,0.1,7.4-3.1,7.6-7.1   c1-21.3,0.7-61.5-12.8-91.7c-6.9-15.5-19.7-24-36.9-24.6c-38.4-1.3-47.8-1.2-92.8-0.5l-15.2,0.2c-4.1,0.1-7.3,3.3-7.4,7.4   c-0.5,40.9-0.1,73.5,1.2,109C665.6,498.8,668.9,502,672.9,502.1z M679.2,393.3l7.9-0.1c44.7-0.7,54-0.9,92,0.5   c11.4,0.4,19.2,5.5,23.7,15.7c4,9,12.8,33.9,11.7,77.6c-11-0.1-22.7-0.1-34.7-0.1c1.7-2.3,3.3-4.7,4.9-6.9   c3.7-5.2,7.2-10.1,9.8-13.4c2.6-3.2,2-8-1.2-10.5c-3.2-2.6-8-2-10.5,1.2c-2.9,3.6-6.5,8.7-10.3,14.1c-3.6,5-7.6,10.6-11.4,15.6   c-4.6,0-9.3,0-13.9,0.1c-22.9,0.1-46.4,0.3-67.2,0.1C679.2,456.7,678.9,427.8,679.2,393.3z M251.3,380.8c-20.6-0.4-53,0.1-68.3,1.4   c-21.9,1.8-31.9,14.5-36.5,24.7c-13.3,30.2-13.5,70.4-12.4,91.7c0.2,4,3.5,7.1,7.5,7.1c0,0,0.1,0,0.1,0c22.4-0.4,38.7-0.5,54.4-0.6   c15.7-0.1,32-0.3,54.5-0.6c4-0.1,7.2-3.3,7.4-7.2c1.2-35.6,1.4-68.2,0.8-109C258.6,384.1,255.3,380.8,251.3,380.8z M243.1,489.5   c-18.8,0.3-33.2,0.4-47.2,0.5c-14,0.1-28.4,0.2-47.1,0.5c-0.5-18.9,0.5-52.8,11.5-77.7c4.3-9.7,12.1-14.9,24-15.8   c11.5-0.9,33-1.4,51.6-1.4c2.7,0,5.4,0,8,0C244.2,430.2,244,459.1,243.1,489.5z M612.1,378.4c0.4,0,11-0.5,21.4-0.5   c4.1,0,7.4,3.3,7.5,7.3c0.7,30.6,1.3,59.9,2,89.2c0.7,29.3,1.3,58.7,2,89.3c0,1.6,0.1,3.4,0.2,5.1c0.5,11.5,0.9,23.5-6.5,29.5   c-11.8,9.5-22.5,20.8-26.8,27.1c-8.3,11.8-13.4,21.6-16.5,27.4l-0.9,1.7c-6.8,12.8-21.1,14.3-42.3,14.3c-3,0-6.2,0-9.4-0.1   c-4.7,0-9.6-0.1-14.9-0.1c0,0,0,0,0,0c-4.1,0-7.4-3.3-7.5-7.4c-0.6-33.8-1.1-58.7-1.7-82.8c-0.6-24.1-1.1-49.1-1.7-82.9   c-0.1-4.1,3.2-7.6,7.4-7.6c0,0,0.1,0,0.1,0c4.1,0,7.4,3.3,7.5,7.4c0.6,33.8,1.1,58.7,1.7,82.8c0.5,22.4,1,45.4,1.6,75.6   c2.6,0,5.2,0,7.7,0.1c23.5,0.2,35,0,38.4-6.3l0.9-1.7c3.2-6.1,8.6-16.4,17.4-29.1c5-7.2,16.1-19.2,29.7-30.1   c1.6-2.2,1.2-12.4,1-17.3c-0.1-1.8-0.1-3.6-0.2-5.4c-0.7-30.6-1.3-59.9-2-89.2c-0.6-27-1.2-53.9-1.8-81.9   c-7.3,0.1-13.3,0.4-13.4,0.4c-4.1,0.2-7.6-3-7.8-7.2C604.8,382.1,608,378.5,612.1,378.4z M580.3,489.3c7.6-0.1,15.5-0.2,22.8-0.5   c-0.2-21.8-1.5-54.4-2-68.8l-7.8,0.2c-4.1,0.1-7.6-3.2-7.7-7.3c-0.1-4.1,3.2-7.6,7.3-7.7l15.2-0.4c4.1-0.1,7.5,3.1,7.7,7.2   c0,0.6,2.4,56.7,2.4,84c0,4-3.1,7.3-7.1,7.5c-9.6,0.6-20.3,0.7-30.6,0.8c-10.2,0.1-20.7,0.3-29.9,0.8c-0.1,0-0.3,0-0.4,0   c-1.9,0-3.7-0.7-5.1-2c-1.5-1.4-2.4-3.3-2.4-5.3c-0.3-8.9-0.9-25.8-0.9-25.8l15-0.5c0,0,0.3,9.7,0.6,18.2   C564.8,489.5,572.6,489.4,580.3,489.3z M290.5,395.2c-0.1,0-0.2,0-0.2,0c0.1,15.5,0.2,31.4,0.4,47.4c0.1,16,0.2,31.9,0.4,47.4   c15.2-0.3,30.2-0.5,44.9-0.7c14.6-0.2,29.6-0.3,44.7-0.7c-0.3-10-0.2-19.6-0.2-29c0-11.6,0.1-23.6-0.4-36c-0.2-4.1,3-7.6,7.2-7.8   c4.1-0.2,7.6,3,7.8,7.2c0.5,12.7,0.5,24.9,0.4,36.7c0,11.6-0.1,23.6,0.4,36c0.1,2-0.6,4-2,5.4c-1.4,1.5-3.3,2.3-5.3,2.4   c-17.7,0.4-35.4,0.6-52.5,0.8c-17.1,0.2-34.7,0.4-52.3,0.8c-0.1,0-0.1,0-0.2,0c-1.9,0-3.8-0.8-5.2-2.1c-1.4-1.4-2.3-3.3-2.3-5.3   c-0.1-17.8-0.3-36.4-0.4-55c-0.1-18.6-0.3-37.2-0.4-55c0-2,0.8-4,2.2-5.4c1.4-1.4,3.4-2.2,5.4-2.2c11,0.2,17.4,0,25.6-0.3   c2.9-0.1,6-0.2,9.6-0.3c4.1-0.1,7.6,3.2,7.7,7.3s-3.2,7.6-7.3,7.7c-3.6,0.1-6.7,0.2-9.6,0.3C302.6,395.1,297.4,395.2,290.5,395.2z"/>
</g>
<g class="st0" id="flat">
<g class="st2">
<path class="st10" d="M754,341.3c-32.6,0.5-46.9,0.4-104.9,0.2l-16.3-0.1c-1.2,5.1-3.7,10-7.3,14.3c-17.4,20.8-33.2,39.5-48.1,57    c0.1-0.1,0.1-0.1,0.2-0.2l30.6-0.3c0,0,2.4,56.2,2.4,83.7c-18.8,1.1-41.7,0.6-60.5,1.7c-0.2-6.6-0.6-36.6-0.8-51.8    c0,0,0.1-0.1,0.1-0.1c-36.9,43.1-70.2,80.7-112.4,126.8c-6.8,7.4-15.9,11.5-25.7,11.5c-11.5,0-22.8-6-29.3-15.6    c-6.5-9.7-7.8-21.5-3.4-32.5c9.4-23.4,18-46.1,26.3-68c7.2-19,14.1-37.1,20.8-53.9c-6.5,0-13.1-0.1-19.4-0.2l-0.1,0l-18.7-0.2    c0.9,24.8-0.3,58,0.8,82.3c-35.3,0.8-69.4,0.8-104.8,1.6c-0.3-35.7-0.5-74.3-0.8-110c14.7,0.2,42.2-0.2,56.4-0.5c0,0,0,0,0,0    c-2.4-9.8-0.5-20.2,5.5-28.6c3.9-5.4,8.2-11.5,12.7-18l-12.3,0c-33.2,0-54.9,0.1-75.8,0.4c-72.8,0.6-116.3-8.1-150.3,45.9    c-29.6,46.9-21.4,255.6-16,290.6c1.3,8.1,8.4,14.1,16.6,13.9c18.7-0.6,43.5-1.8,62.6-2.2l613.8-5.2c16.6-1.4,31.4-0.2,47.5-2.2    c8.6-1.1,16.8-4.9,17.5-17.6c3.1-57.4,1.5-184.6-4.4-244.1C851.6,371.5,812.2,340.3,754,341.3z M250.3,496.9    c-44.9,0.7-63.9,0.5-108.9,1.3c-1.4-27.5,0.6-62.9,11.8-88.3c4.1-9.4,12.6-18.8,30.2-20.3c14.9-1.2,46.7-1.7,67.6-1.3    C251.7,427,251.6,459.4,250.3,496.9z M821.8,494.6c-44.9-0.6-103.9,0.6-148.8,0c-1.4-37.6-1.6-69.9-1.2-108.7    c58.8-0.9,65.4-1.2,107.6,0.2c17.6,0.6,26.1,10.8,30.3,20.2C821,431.7,823.1,467,821.8,494.6z"/>
<path class="st7" d="M271.6,765.4c27.7-1.4,54.8-16.5,69.2-40.2c14.5-23.7,15.2-55.5,0.6-79.1c-29-46.8-121-46.9-149.3,0.7    c-14.9,25.1-12.8,58.7,3.9,82.7C212.6,753.3,242.5,766.9,271.6,765.4z"/>
<path class="st7" d="M624.5,653.4c-13.9,35.1,0,78.6,30.8,100.4c30.8,21.8,75.3,20.9,106.2-0.8c28.1-19.8,40.5-57.2,31.6-90.5    C773.4,588.8,652.3,583,624.5,653.4z"/>
<path class="st6" d="M282.6,715.8c11.4-5.4,18.8-18.2,18-30.8c-0.5-7.9-4.2-15.6-10.3-20.6c-16.7-13.8-42.9-9.7-51,11.4    c-4.5,11.8-1.2,26.1,8.1,34.7S271.2,721.2,282.6,715.8z"/>
<path class="st6" d="M685.7,709.6c7.1,6.1,16.8,9.2,26.1,8c13.6-1.7,25.5-13,28-26.5c5.2-28.4-26.9-53.6-51.9-36    c-9.4,6.6-14.8,18.4-14.2,29.9C674.3,694.3,678.6,703.4,685.7,709.6z"/>
<path class="st9" d="M848.1,530.7c-11.4,4.6-21.2,14.4-23.7,26.5c-3.1,15.2,6.1,31.3,19.5,39.2c5.7,3.4,12,5.5,18.5,6.5    c2.9-27,3.3-52.6-0.6-75.6C857.1,527.8,852.5,528.9,848.1,530.7z"/>
<path class="st9" d="M598.6,322.3c-42.6,0.5-58.5,2.1-100-0.2c-2-0.1,13.9-87,24.9-145.9c2.2-11.8-13.3-18.1-19.9-8.1    c-38.4,57.3-104.1,155-139.4,204.3c-5.3,7.4,0.1,17.5,9.2,17.4c29.5-0.5,61.1,1.2,89-0.8c-17.9,39.8-37.5,96.1-61.3,155.8    c-4.5,11.4,10.1,20.5,18.3,11.5c68.2-74.5,113.4-127.4,187.8-216C613.2,333.2,608,322.2,598.6,322.3z"/>
<path class="st8" d="M112.1,662.9c8.8-1.6,17.5-3.1,21.5-11.1c3.1-6.1,3.2-16.5,3.2-23.4c0-8.2-0.1-16.5-0.1-24.7    c0-11.1,0.7-23.1-6.2-31.8c-4-5.1-8.2-7.3-32.9-7.7c-1.3,33.1,0,66.2,3.7,99.4C105.5,663.5,110,663.2,112.1,662.9z"/>
<path class="st7" d="M373.4,397.3c10.8-0.2,22.1,0,33.1,0.1c14.7,0.2,29.7,0.3,44.1-0.2c-9.5,22.2-19.6,48.8-30.1,76.6    c-8.4,22-17,44.7-26.4,68.3c-3.4,8.4-0.4,17.7,7.3,22.5c3.1,1.9,6.5,2.9,9.9,2.9c5,0,9.9-2.1,13.6-6.1    c68.1-74.5,113.1-126.9,188.1-216.2c2.7-3.2,2.3-7.9-0.9-10.6c-3.2-2.7-7.9-2.2-10.6,0.9C526.6,424.7,481.7,477,413.8,551.3    c-1.7,1.9-3.5,1.2-4.4,0.6c-0.9-0.6-2.3-1.9-1.4-4.3c9.5-23.7,18.1-46.5,26.5-68.5c12.3-32.4,24-63.1,34.7-87    c1.1-2.4,0.8-5.2-0.7-7.4c-1.5-2.2-4-3.4-6.7-3.2c-17.3,1.2-36.5,1-55.1,0.8c-11.1-0.1-22.5-0.2-33.5-0.1c-1.9,0-2.9-1.3-3.2-1.9    c-0.4-0.7-0.8-2.1,0.3-3.6c2.4-3.4,1.6-8.1-1.7-10.5c-3.4-2.4-8.1-1.6-10.5,1.7c-4.1,5.7-4.6,13.1-1.3,19.3    C360,393.6,366.4,397.4,373.4,397.3z"/>
<path class="st7" d="M863.6,595.5c-5.9-1-11.3-2.8-15.9-5.6c-11.6-6.8-18.3-19.9-15.9-31.2c1.9-9,9.2-17,19.2-21.1    c3.6-1.4,7.5-2.4,11.7-2.9c4.1-0.5,7-4.2,6.6-8.3c-0.5-4.1-4.2-7.1-8.3-6.6c-5.5,0.7-10.8,2-15.6,3.9    c-14.6,5.9-25.4,18.1-28.2,31.9c-3.6,17.6,5.8,37,23,47.1c6.2,3.7,13.3,6.2,21.1,7.5c0.4,0.1,0.8,0.1,1.2,0.1    c3.6,0,6.8-2.6,7.4-6.3C870.4,600,867.6,596.1,863.6,595.5z"/>
<path class="st7" d="M760.3,500.4c1.4,1.1,3,1.6,4.6,1.6c2.2,0,4.4-1,5.9-2.9c4.7-5.9,9.6-12.9,14-19c3.7-5.2,7.2-10.1,9.8-13.4    c2.6-3.2,2-8-1.2-10.5c-3.2-2.6-8-2-10.5,1.2c-2.9,3.6-6.5,8.7-10.3,14.1c-4.3,6-9.1,12.8-13.6,18.5    C756.5,493.1,757.1,497.8,760.3,500.4z"/>
<path class="st7" d="M599.9,386.1c0.1,4.1,3.6,7.4,7.7,7.3c0.1,0,9.6-0.3,18.5-0.4c0.6,27.9,1.2,54.9,1.8,81.9    c0.7,29.3,1.3,58.7,2,89.2c0,1.7,0.1,3.5,0.2,5.4c0.2,4.9,0.6,15-1,17.3c-13.6,10.9-24.7,23-29.7,30.1    c-8.8,12.6-14.2,22.9-17.4,29.1l-0.9,1.7c-3.3,6.3-14.8,6.5-38.4,6.3c-2.5,0-5.1,0-7.7-0.1c-0.5-30.7-1.1-57.3-1.6-83    c-0.6-27.8-1.1-56.6-1.7-90.4c-0.1-4.1-3.4-7.4-7.5-7.4c0,0-0.1,0-0.1,0c-4.1,0.1-7.4,3.5-7.4,7.6c0.6,33.8,1.1,62.6,1.7,90.4    c0.6,27.8,1.1,56.6,1.7,90.4c0.1,4.1,3.4,7.4,7.5,7.4c0,0,0,0,0,0c5.3,0,10.2,0,14.9,0.1c3.3,0,6.4,0.1,9.4,0.1    c21.2,0,35.5-1.5,42.3-14.3l0.9-1.7c3.1-5.8,8.2-15.6,16.5-27.4c4.4-6.3,15-17.6,26.8-27.1c7.5-6,7-17.9,6.5-29.5    c-0.1-1.7-0.1-3.5-0.2-5.1c-0.7-30.6-1.3-59.9-2-89.3c-0.7-29.3-1.3-58.7-2-89.2c-0.1-4.1-3.4-7.3-7.5-7.3    c-10.3,0-25.7,0.4-26.3,0.5C603.1,378.5,599.8,381.9,599.9,386.1z"/>
<path class="st7" d="M144.3,628.4c0-8.2-0.1-16.5-0.1-24.7c0-1,0-1.9,0-2.9c0-11,0.1-23.5-7.8-33.5c-6.4-8-14-10.1-38.6-10.5    c-4.2,0-7.6,3.2-7.6,7.4c-0.1,4.1,3.2,7.6,7.4,7.6c23.6,0.4,25.2,2.5,27.1,4.9c4.6,5.8,4.6,14.7,4.6,24.1c0,1,0,2,0,3    c0,8.2,0.1,16.5,0.1,24.7c0,5.4,0,15.4-2.3,20c-2.3,4.4-7.6,5.6-16.2,7.1c-1.1,0.2-4.6,0.5-9.6,0.6c-4.1,0.1-7.4,3.5-7.3,7.7    c0.1,4.1,3.4,7.3,7.5,7.3c0.1,0,0.1,0,0.2,0c3.9-0.1,9.1-0.3,11.9-0.8c9.4-1.7,21.1-3.7,26.9-15C144,648,144.3,638,144.3,628.4z"/>
</g>
</g>
<g class="st0" id="colored_x5F_line">
<g class="st2">
<path class="st9" d="M754,341.3c-32.6,0.5-46.9,0.4-104.9,0.2l-16.3-0.1c-1.2,5.1-3.7,10-7.3,14.3c-17.4,20.8-33.2,39.5-48.1,57    c0.1-0.1,0.1-0.1,0.2-0.2l30.6-0.3c0,0,2.4,56.2,2.4,83.7c-18.8,1.1-41.7,0.6-60.5,1.7c-0.2-6.6-0.6-36.6-0.8-51.8    c0,0,0.1-0.1,0.1-0.1c-36.9,43.1-70.2,80.7-112.4,126.8c-6.8,7.4-15.9,11.5-25.7,11.5c-11.5,0-22.8-6-29.3-15.6    c-6.5-9.7-7.8-21.5-3.4-32.5c9.4-23.4,18-46.1,26.3-68c7.2-19,14.1-37.1,20.8-53.9c-6.5,0-13.1-0.1-19.4-0.2l-0.1,0l-18.7-0.2    c0.9,24.8-0.3,58,0.8,82.3c-35.3,0.8-69.4,0.8-104.8,1.6c-0.3-35.7-0.5-74.3-0.8-110c14.7,0.2,42.2-0.2,56.4-0.5c0,0,0,0,0,0    c-2.4-9.8-0.5-20.2,5.5-28.6c3.9-5.4,8.2-11.5,12.7-18l-12.3,0c-33.2,0-54.9,0.1-75.8,0.4c-72.8,0.6-116.3-8.1-150.3,45.9    c-29.6,46.9-21.4,255.6-16,290.6c1.3,8.1,8.4,14.1,16.6,13.9c18.7-0.6,43.5-1.8,62.6-2.2l51.1-0.4c-0.2-4.9,0.4-9.8,2.2-14.3    c9.2-23.9,38.8-28.5,57.7-12.9c6.9,5.7,11,14.4,11.6,23.3c0.1,1.1,0.1,2.2,0,3.3l363.6-3.1c-0.6-13.2,5.7-26.7,16.5-34.4    c26.5-18.7,60.1,4.4,60.8,33.7l50.2-0.4c16.6-1.4,31.4-0.2,47.5-2.2c8.6-1.1,16.8-4.9,17.5-17.6c3.1-57.4,1.5-184.6-4.4-244.1    C851.6,371.5,812.2,340.3,754,341.3z M250.3,496.9c-44.9,0.7-63.9,0.5-108.9,1.3c-1.4-27.5,0.6-62.9,11.8-88.3    c4.1-9.4,12.6-18.8,30.2-20.3c14.9-1.2,46.7-1.7,67.6-1.3C251.7,427,251.6,459.4,250.3,496.9z M821.8,494.6    c-44.9-0.6-103.9,0.6-148.8,0c-1.4-37.6-1.6-69.9-1.2-108.7c58.8-0.9,65.4-1.2,107.6,0.2c17.6,0.6,26.1,10.8,30.3,20.2    C821,431.7,823.1,467,821.8,494.6z"/>
<path class="st9" d="M373.3,389.8c29.5-0.5,61.1,1.2,89-0.8c-17.9,39.8-37.5,96.1-61.3,155.8c-4.5,11.4,10.1,20.5,18.3,11.5    c68.2-74.5,113.4-127.4,187.8-216c6-7.2,0.9-18.2-8.6-18.1c-42.6,0.5-58.5,2.1-100-0.2c-2-0.1,13.9-87,24.9-145.9    c2.2-11.8-13.3-18.1-19.9-8.1c-38.4,57.3-104.1,155-139.4,204.3C358.9,379.8,364.3,390,373.3,389.8z"/>
<path class="st5" d="M373.4,397.3c10.8-0.2,22.1,0,33.1,0.1c14.7,0.2,29.7,0.3,44.1-0.2c-9.5,22.2-19.6,48.8-30.1,76.6    c-8.4,22-17,44.7-26.4,68.3c-3.4,8.4-0.4,17.7,7.3,22.5c3.1,1.9,6.5,2.9,9.9,2.9c5,0,9.9-2.1,13.6-6.1    c68.1-74.5,113.1-126.9,188.1-216.2c2.7-3.2,2.3-7.9-0.9-10.6c-3.2-2.7-7.9-2.2-10.6,0.9C526.6,424.7,481.7,477,413.8,551.3    c-1.7,1.9-3.5,1.2-4.4,0.6c-0.9-0.6-2.3-1.9-1.4-4.3c9.5-23.7,18.1-46.5,26.5-68.5c12.3-32.4,24-63.1,34.7-87    c1.1-2.4,0.8-5.2-0.7-7.4c-1.5-2.2-4-3.4-6.7-3.2c-17.3,1.2-36.5,1-55.1,0.8c-11.1-0.1-22.5-0.2-33.5-0.1c-1.9,0-2.9-1.3-3.2-1.9    c-0.4-0.7-0.8-2.1,0.3-3.6c2.4-3.4,1.6-8.1-1.7-10.5c-3.4-2.4-8.1-1.6-10.5,1.7c-4.1,5.7-4.6,13.1-1.3,19.3    C360,393.6,366.4,397.4,373.4,397.3z"/>
<path class="st5" d="M271.6,765.4c27.7-1.4,54.8-16.5,69.2-40.2c14.5-23.7,15.2-55.5,0.6-79.1c-29-46.8-121-46.9-149.3,0.7    c-14.9,25.1-12.8,58.7,3.9,82.7C212.6,753.3,242.5,766.9,271.6,765.4z M239.3,675.8c8.1-21.1,34.3-25.2,51-11.4    c6.1,5,9.8,12.7,10.3,20.6c0.8,12.6-6.6,25.3-18,30.8c-11.4,5.4-26,3.2-35.2-5.3S234.8,687.5,239.3,675.8z"/>
<path class="st5" d="M624.5,653.4c-13.9,35.1,0,78.6,30.8,100.4c30.8,21.8,75.3,20.9,106.2-0.8c28.1-19.8,40.5-57.2,31.6-90.5    C773.4,588.8,652.3,583,624.5,653.4z M688,655.1c24.9-17.6,57.1,7.6,51.9,36c-2.5,13.5-14.3,24.8-28,26.5c-9.3,1.2-19-1.8-26.1-8    s-11.5-15.3-12-24.6C673.2,673.5,678.6,661.7,688,655.1z"/>
<path class="st5" d="M840,602.8c6.2,3.7,13.3,6.2,21.1,7.5c0.4,0.1,0.8,0.1,1.2,0.1c3.6,0,6.8-2.6,7.4-6.3    c0.7-4.1-2.1-7.9-6.2-8.6c-5.9-1-11.3-2.8-15.9-5.6c-11.6-6.8-18.3-19.9-15.9-31.2c1.9-9,9.2-17,19.2-21.1    c3.6-1.4,7.5-2.4,11.7-2.9c4.1-0.5,7-4.2,6.6-8.3c-0.5-4.1-4.2-7.1-8.3-6.6c-5.5,0.7-10.8,2-15.6,3.9    c-14.6,5.9-25.4,18.1-28.2,31.9C813.4,573.3,822.9,592.7,840,602.8z"/>
<path class="st5" d="M760.3,500.4c1.4,1.1,3,1.6,4.6,1.6c2.2,0,4.4-1,5.9-2.9c4.7-5.9,9.6-12.9,14-19c3.7-5.2,7.2-10.1,9.8-13.4    c2.6-3.2,2-8-1.2-10.5c-3.2-2.6-8-2-10.5,1.2c-2.9,3.6-6.5,8.7-10.3,14.1c-4.3,6-9.1,12.8-13.6,18.5    C756.5,493.1,757.1,497.8,760.3,500.4z"/>
<path class="st5" d="M599.9,386.1c0.1,4.1,3.6,7.4,7.7,7.3c0.1,0,9.6-0.3,18.5-0.4c0.6,27.9,1.2,54.9,1.8,81.9    c0.7,29.3,1.3,58.7,2,89.2c0,1.7,0.1,3.5,0.2,5.4c0.2,4.9,0.6,15-1,17.3c-13.6,10.9-24.7,23-29.7,30.1    c-8.8,12.6-14.2,22.9-17.4,29.1l-0.9,1.7c-3.3,6.3-14.8,6.5-38.4,6.3c-2.5,0-5.1,0-7.7-0.1c-0.5-30.7-1.1-57.3-1.6-83    c-0.6-27.8-1.1-56.6-1.7-90.4c-0.1-4.1-3.4-7.4-7.5-7.4c0,0-0.1,0-0.1,0c-4.1,0.1-7.4,3.5-7.4,7.6c0.6,33.8,1.1,62.6,1.7,90.4    c0.6,27.8,1.1,56.6,1.7,90.4c0.1,4.1,3.4,7.4,7.5,7.4c0,0,0,0,0,0c5.3,0,10.2,0,14.9,0.1c3.3,0,6.4,0.1,9.4,0.1    c21.2,0,35.5-1.5,42.3-14.3l0.9-1.7c3.1-5.8,8.2-15.6,16.5-27.4c4.4-6.3,15-17.6,26.8-27.1c7.5-6,7-17.9,6.5-29.5    c-0.1-1.7-0.1-3.5-0.2-5.1c-0.7-30.6-1.3-59.9-2-89.3c-0.7-29.3-1.3-58.7-2-89.2c-0.1-4.1-3.4-7.3-7.5-7.3    c-10.3,0-25.7,0.4-26.3,0.5C603.1,378.5,599.8,381.9,599.9,386.1z"/>
<path class="st5" d="M97.5,571.7c23.6,0.4,25.2,2.5,27.1,4.9c4.6,5.8,4.6,14.7,4.6,24.1c0,1,0,2,0,3c0,8.2,0.1,16.5,0.1,24.7    c0,5.4,0,15.4-2.3,20c-2.3,4.4-7.6,5.6-16.2,7.1c-1.1,0.2-4.6,0.5-9.6,0.6c-4.1,0.1-7.4,3.5-7.3,7.7c0.1,4.1,3.4,7.3,7.5,7.3    c0.1,0,0.1,0,0.2,0c3.9-0.1,9.1-0.3,11.9-0.8c9.4-1.7,21.1-3.7,26.9-15c3.7-7.2,4-17.2,4-26.9c0-8.2-0.1-16.5-0.1-24.7    c0-1,0-1.9,0-2.9c0-11,0.1-23.5-7.8-33.5c-6.4-8-14-10.1-38.6-10.5c-4.2,0-7.6,3.2-7.6,7.4C90,568.2,93.3,571.6,97.5,571.7z"/>
</g>
</g>
</svg>